<svg xmlns="http://www.w3.org/2000/svg" id="Calque_1" data-name="Calque 1" viewBox="0 0 268.5 72.6">
    <title>blanc divergence fm logoPlan de travail 2</title>
    <path
        d="M9.7,14.2H0V46.8H9.7c4.2,0,7.3-1.3,9.3-4.1s3-6.8,3-12.2-1-9.3-3-12.1S13.9,14.2,9.7,14.2Zm6.8,19.1a11.2,11.2,0,0,1-1.8,6.8,6,6,0,0,1-5.3,2.4H5.2v-24H9.4a6,6,0,0,1,5.3,2.4q1.8,2.4,1.8,6.9Z"
        style="fill:#000"></path>
    <rect x="25.4" y="14.2" width="5.2" height="32.61" style="fill:#000"></rect>
    <polygon
        points="48.6 30.7 45.7 41.8 45.5 41.8 42.6 30.7 38.3 14.2 32.7 14.2 41.9 46.8 49.1 46.8 58.4 14.2 52.9 14.2 48.6 30.7"
        style="fill:#000"></polygon>
    <polygon
        points="60.4 46.8 80.8 46.8 80.8 42.5 65.6 42.5 65.6 32.5 80.2 32.5 80.2 28.1 65.6 28.1 65.6 18.6 80.8 18.6 80.8 14.2 60.4 14.2 60.4 46.8"
        style="fill:#000"></polygon>
    <path
        d="M151,27.3a60.5,60.5,0,0,0-6.4-2.4c-.5-.2-1.1-.3-1.3-1s-.7.6-.9.5a4.5,4.5,0,0,1-.9-1l-.4.2a2.9,2.9,0,0,1-2.5.6,34,34,0,0,0-4.6-.8h-1.2c.5,2,1.8,2.9,2.8,4.2l-.8.8-13,11.2c-3,2.6-6.1,5-9.1,7.3a9.9,9.9,0,0,1-2.7,1.4c-.2.1-.5-.1-.6-.1s.4-1.8.6-2.7a6.1,6.1,0,0,1,.3-1.3c.7-1.5,1.4-3.1,2.2-4.5a92.3,92.3,0,0,1,10.9-15.8c2.8-3.1,5.8-6,8.7-9a41.7,41.7,0,0,1,6.7-5.4c.8-.5,1.6-.8,2.4-1.2v.2l-1.7,1.4c1.2-.3,2.1-1.1,3.3-1.4a1.9,1.9,0,0,1,.8-.3,1.9,1.9,0,0,0,1.5-.9l2,1.4,1.5-.7c-.2-1-.2-2-1-2.6s-2.3-2.5-4.1-2.8l-.3-.3c-1.1-.6-2.2-1.2-3.6-.3s-.4,0-.6-.1l.5-.5c.4-.2.8-.2.9-.8-1.5-.7-1.5-.7-3,.4a6.7,6.7,0,0,1-1.8.7l-.6.3a62.5,62.5,0,0,0-8.3,6.3,127.1,127.1,0,0,0-17.2,20.5,52.6,52.6,0,0,0-5.5,10.2,16.5,16.5,0,0,0-1,4.8L97.3,33.2a7.8,7.8,0,0,0,5.2-3,10.1,10.1,0,0,0,1.8-6.2,10.4,10.4,0,0,0-2.4-7.2c-1.6-1.7-4-2.6-7.1-2.6H82.6V46.8h5.2V33.6h4.3L99,46.8h4.3a12.8,12.8,0,0,0,1.3,3.9c1,1.8,2.5,2.9,4.6,2.4-.2.9-.2.9.8,1l-.4.6a9,9,0,0,0,4.8-.6c.3-.2.8-.5,1-.4s1,0,1.5-.3l2.2-1.3a71.5,71.5,0,0,0,7.4-6.2c1.3-1.4,2.7-2.7,4.1-4a2.7,2.7,0,0,0,.8-.7l.2.2a11.7,11.7,0,0,0-.5,1.1c-.3.7-.7,1.4-1.1,2.2A119,119,0,0,0,121.9,67a13.7,13.7,0,0,0-.1,3.5c.1.9.3,1.9,1.5,1.6s.2.2.4.5l1.1-2.1-.7-.2.3-1.4a92.5,92.5,0,0,1,4.4-11.4c.6-1.3,1.5-2.5,2-3.8a104.3,104.3,0,0,1,6-10.9l2.5-4c1.5-2.4,3.1-4.7,4.6-7a1.6,1.6,0,0,1,1.4-.9,6,6,0,0,0,3.2-.7H151V46.8h20.4V42.5H156.2v-10h14.6V28.1H156.2V18.6h15.2V14.2H151ZM87.8,29.5v-11H94c3.3,0,4.9,1.5,4.9,4.5v2c0,3-1.6,4.5-4.9,4.5Zm22,5.6v-.2l2-3.3.2.2Zm2.6-4.2v-.2l.5-.6h.1Zm1.4-2h-.1a1.8,1.8,0,0,1,.5-.7v.2Zm2.1-2.7V26l.5-.7h.1Zm7.3-9.4h.1l-.7.9h-.1ZM108.3,33.3l-1.6,2.8A5,5,0,0,1,108.3,33.3Zm-3,5.9c.4-1,.5-2.2,1.4-3Zm2.4.3h-.2c.3-.8.7-1.5,1-2.3h.2Zm.8-6.8a3,3,0,0,1,.5-1,62.9,62.9,0,0,1,6.7-9.3c.4-.5.6-1.4,1.7-1.6Zm24.9,1a7.9,7.9,0,0,1-2.9,2.6A8,8,0,0,1,133.4,33.7Zm-4.2,3.5c-.1.9-.6,1-1.1,1ZM117,52.8l-.2-.2,1.2-1,.4-.2v.3Zm5.2-6.6-5.6,4.9a9.2,9.2,0,0,1-4.5,2.3c-.2-.4.7-1-.1-1.1l-.5.6-1.2-.4a24.3,24.3,0,0,1,2.8-1.4c0-.1.1,0,.1,0s1,.1,1.2-.4a2.5,2.5,0,0,1,2.1-1.8c.3-.1.5-.6.8-.9a20.3,20.3,0,0,0,2.3-1.8,14,14,0,0,1,3.3-2.7,6,6,0,0,0,1.2-1.1,8.9,8.9,0,0,1,2.4-1.8l.8-.7c1.3-.2,2-1.5,2.9-2.3s1.9-1.8,2.8-2.6a31.1,31.1,0,0,1,2.8-2.3,4.8,4.8,0,0,1-1.4,2.5Zm12.9-5.7c-1.3,2.7-2.6,5.4-4,8-.3.7-.8,1.4-1.1,2.1a6.6,6.6,0,0,0-.9,1.9l-1.8,4.2c-.1.2-.1.4-.2.5s-1.3,2.7-1.9,4.1l-1.8,5.9a25.6,25.6,0,0,0-.5,2.7h-.2c0-.4-.1-.9-.1-1.4a33.3,33.3,0,0,1,1.1-5.3,91.9,91.9,0,0,1,4.5-12.4,92.6,92.6,0,0,1,5.3-11,14.4,14.4,0,0,1,2.7-3.3c.6-.5,1.1-1.1,1.7-1.7V35Z"
        style="fill:#000"></path>
    <polygon
        points="190.4 39.3 190 39.3 180.4 14.2 173.7 14.2 173.7 46.8 178.3 46.8 178.3 21.8 178.7 21.8 188.3 46.8 195 46.8 195 14.2 190.4 14.2 190.4 39.3"
        style="fill:#000"></polygon>
    <path
        d="M203.5,20.6a5.7,5.7,0,0,1,5.1-2.6,5.3,5.3,0,0,1,2.3.4,5,5,0,0,1,1.7,1.1,7.4,7.4,0,0,1,1.2,1.7,18,18,0,0,1,.8,2.1l4.7-1.6a14.6,14.6,0,0,0-1.4-3.1,10.9,10.9,0,0,0-2.1-2.6,11.1,11.1,0,0,0-3-1.7,13.3,13.3,0,0,0-4.2-.6c-4.1,0-7.2,1.4-9.2,4.4s-3,7.1-3,12.4,1,9.6,3,12.5,5.1,4.4,9.2,4.4a13.3,13.3,0,0,0,4.2-.6,11.1,11.1,0,0,0,3-1.7,13.3,13.3,0,0,0,2.1-2.6,17.3,17.3,0,0,0,1.4-3.1l-4.7-1.6a18,18,0,0,1-.8,2.1,10.4,10.4,0,0,1-1.2,1.7,7.1,7.1,0,0,1-1.7,1.1,5.3,5.3,0,0,1-2.3.4,5.7,5.7,0,0,1-5.1-2.6,14.8,14.8,0,0,1-1.6-7.2V27.8A14.8,14.8,0,0,1,203.5,20.6Z"
        style="fill:#000"></path>
    <polygon
        points="221 46.8 241.5 46.8 241.5 42.5 226.3 42.5 226.3 32.5 240.9 32.5 240.9 28.1 226.3 28.1 226.3 18.6 241.5 18.6 241.5 14.2 221 14.2 221 46.8"
        style="fill:#000"></polygon>
    <polygon
        points="257.2 9.3 257.5 7.1 249.4 7.1 247.3 19.5 249.9 19.5 250.8 14.3 255.8 14.3 256.1 12.2 251.1 12.2 251.6 9.3 257.2 9.3"
        style="fill:#000"></polygon>
    <polygon
        points="265.5 7.1 263.3 11.3 263.1 11.3 262.3 7.1 259.3 7.1 257.2 19.5 259.5 19.5 260.4 14 260.8 10.5 261 10.5 262.2 16.9 265.6 10.5 265.8 10.5 265.1 14 264.1 19.5 266.4 19.5 268.5 7.1 265.5 7.1"
        style="fill:#000"></polygon>
</svg>